<svg width="412" height="395" xmlns="http://www.w3.org/2000/svg"><g fill-rule="nonzero" fill="none"><path d="M46.4 386.143v-328.8c0-30.4 18.4-48.8 48.8-48.8h130.4c30.4 0 48.8 18.4 48.8 48.8v329.6h-228v-.8z" fill="#F4BE15"/><path d="M225.6 8.543h-35.2c30.4 0 48.8 18.4 48.8 48.8v329.6h35.2v-329.6c0-31.2-18.4-48.8-48.8-48.8z" fill="#D6A610"/><path fill="#319D6E" d="M300.8 159.743v-41.6l54.4-28v69.6z"/><path fill="#2A7C58" d="M333.6 101.343v58.4h21.6v-69.6z"/><path d="M99.2 51.743h122.4c5.6 0 9.6 4 9.6 9.6v67.2c0 5.6-4 9.6-9.6 9.6H99.2c-5.6 0-9.6-4-9.6-9.6v-67.2c0-5.6 4-9.6 9.6-9.6z" fill="#FFF"/><path d="M221.6 51.743H188c4.8 0 9.6 4 9.6 9.6v67.2c0 5.6-4 9.6-9.6 9.6h33.6c5.6 0 9.6-4 9.6-9.6v-67.2c0-5.6-4-9.6-9.6-9.6z" fill="#B0E4CD"/><g fill="#04142B"><path d="M367.2 214.143c-13.6-7.2-24.8-12.8-29.6-46.4h17.6c4.8 0 8-3.2 8-8v-76.8c-.8-28.8-38.4-58.4-42.4-61.6-3.2-2.4-8.8-1.6-11.2 1.6-2.4 3.2-1.6 8.8 1.6 11.2 9.6 7.2 36 31.2 36 48.8v2.4l-49.6 26.4c-2.4 1.6-4 4-4 7.2v41.6c0 4.8 3.2 8 8 8h20c5.6 43.2 22.4 52 38.4 60 12.8 6.4 24.8 12.8 33.6 42.4 7.2 26.4-1.6 40.8-10.4 48-13.6 11.2-32.8 13.6-48.8 7.2-12.8-5.6-21.6-18.4-20.8-32-1.6-55.2-20-71.2-30.4-76v-160.8c0-41.6-29.6-56.8-56.8-56.8H95.2c-27.2 0-56.8 15.2-56.8 56.8v321.6H8c-4.8 0-8 3.2-8 8s3.2 8 8 8h305.6c4.8 0 8-3.2 8-8s-3.2-8-8-8h-31.2v-140.8c6.4 7.2 13.6 22.4 14.4 56 0 20 12 38.4 30.4 45.6 8 3.2 16 4.8 24.8 4.8 15.2 0 29.6-4.8 40.8-14.4 10.4-8.8 25.6-28.8 15.2-64.8-10.4-36-27.2-44-40.8-51.2zm-58.4-62.4v-28.8l37.6-20v48.8h-37.6zm-42.4 226.4h-212v-320.8c0-35.2 25.6-40.8 40.8-40.8h130.4c15.2 0 40.8 5.6 40.8 40.8v320.8z"/><path d="M221.6 43.743H99.2c-9.6 0-17.6 8-17.6 17.6v67.2c0 9.6 8 17.6 17.6 17.6h122.4c9.6 0 17.6-8 17.6-17.6v-67.2c0-9.6-8-17.6-17.6-17.6zm1.6 84.8c0 .8-.8 1.6-1.6 1.6H99.2c-.8 0-1.6-.8-1.6-1.6v-67.2c0-.8.8-1.6 1.6-1.6h122.4c.8 0 1.6.8 1.6 1.6v67.2z"/></g></g></svg>